<svg width="20" height="26" viewBox="0 0 20 26" fill="none" xmlns="http://www.w3.org/2000/svg">
<path d="M10 13C10.6875 13 11.276 12.7552 11.7656 12.2656C12.2552 11.776 12.5 11.1875 12.5 10.5C12.5 9.8125 12.2552 9.22396 11.7656 8.73438C11.276 8.24479 10.6875 8 10 8C9.3125 8 8.72396 8.24479 8.23438 8.73438C7.74479 9.22396 7.5 9.8125 7.5 10.5C7.5 11.1875 7.74479 11.776 8.23438 12.2656C8.72396 12.7552 9.3125 13 10 13ZM10 22.1875C12.5417 19.8542 14.4271 17.7344 15.6563 15.8281C16.8854 13.9219 17.5 12.2292 17.5 10.75C17.5 8.47917 16.776 6.61979 15.3281 5.17188C13.8802 3.72396 12.1042 3 10 3C7.89583 3 6.11979 3.72396 4.67188 5.17188C3.22396 6.61979 2.5 8.47917 2.5 10.75C2.5 12.2292 3.11458 13.9219 4.34375 15.8281C5.57292 17.7344 7.45833 19.8542 10 22.1875ZM10 25.5C6.64583 22.6458 4.14062 19.9948 2.48438 17.5469C0.828125 15.099 0 12.8333 0 10.75C0 7.625 1.00521 5.13542 3.01563 3.28125C5.02604 1.42708 7.35417 0.5 10 0.5C12.6458 0.5 14.974 1.42708 16.9844 3.28125C18.9948 5.13542 20 7.625 20 10.75C20 12.8333 19.1719 15.099 17.5156 17.5469C15.8594 19.9948 13.3542 22.6458 10 25.5Z" fill="#478E64"/>
</svg>
